# xmcd
#
# Track frame offsets:
# 150
# 19103
# 37779
# 53046
# 72440
# 87601
# 103974
# 119103
# 134015
# 153347
# 166913
# 180066
# 197344
#
# Disc length: 2829 seconds
#
#
# Revision: 1
# Processed by: cddbd v1.5PL3 Copyright (c) Steve Scherf et al.
# Submitted via: FreeRIP 2.60 
#
DISCID=ac0b0b0d
DTITLE=Noa - Now
DYEAR=2002
DGENRE=Ballad
TTITLE0=Missing your heart
TTITLE1=Hawk and sparrow
TTITLE2=My other wing
TTITLE3=Eye in the sky
TTITLE4=We
TTITLE5=Motor lullabies
TTITLE6=Nothing
TTITLE7=Now
TTITLE8=Now forget
TTITLE9=Warry doll
TTITLE10=Today
TTITLE11=We can work it out
TTITLE12=Dance of hope
EXTD=
EXTT0=
EXTT1=
EXTT2=
EXTT3=
EXTT4=
EXTT5=
EXTT6=
EXTT7=
EXTT8=
EXTT9=
EXTT10=
EXTT11=
EXTT12=
PLAYORDER=
